<?xml version="1.0" encoding="UTF-8"?>
<svg id="Capa_1" data-name="Capa 1" xmlns="http://www.w3.org/2000/svg" viewBox="0 0 46.75 47.33">
  <defs>
    <style>
      .cls-1 {
        fill: #fff;
      }

      .cls-2 {
        fill: none;
      }

      .cls-3 {
        fill: #b71e1d;
      }

      .cls-4 {
        fill: #ab2221;
      }

      .cls-5 {
        fill: #ec7021;
      }

      .cls-6 {
        fill: #e06327;
      }
    </style>
  </defs>
  <rect class="cls-1" x="0" y="0" width="46.75" height="47.33" rx="4.69" ry="4.69"/>
  <g>
    <path class="cls-2" d="M24.51,6.47l-.04,1.86c.8-.51,1.86-.56,2.74-.04,1.24.73,1.65,2.33.92,3.56-.73,1.23-2.33,1.63-3.57.9-.06-.04-.12-.08-.18-.12l-.19,8.33c0,.24.15.35.22.4.01,0,.04.02.06.03l1.38-2.33c-.49-.8-.54-1.83-.03-2.69.51-.85,1.43-1.31,2.37-1.26l1.12-1.89c-.15-.53-.1-1.12.17-1.65.31-.6.86-.99,1.47-1.14l.9-1.52s-.02-.01-.03-.02c-2.36-1.4-4.93-2.25-7.31-2.4ZM27.34,7.19s0,0-.01,0h0s0,0,0,0c0,0,0,0,0,0h-.01Z"/>
    <path class="cls-2" d="M26.84,16.95c-.14.23-.2.49-.2.75l.76-1.28c-.23.12-.42.29-.56.53Z"/>
    <path class="cls-2" d="M32.52,10.61c1.1.58,1.53,1.94.95,3.04-.58,1.1-1.94,1.52-3.05.94-.57-.3-.96-.82-1.13-1.4l-1.12,1.89c.41.02.82.14,1.2.36.93.55,1.39,1.58,1.26,2.58l6.78-3.89c-1.27-2-3.23-3.85-5.57-5.25l-.9,1.52c.51-.12,1.07-.07,1.57.2Z"/>
    <path class="cls-2" d="M24.86,21.35l2.21-1.27c-.12-.05-.23-.1-.34-.17-.37-.22-.67-.52-.89-.87l-1.38,2.33c.09.04.23.07.39-.02Z"/>
    <path class="cls-2" d="M27.34,18.9c.68.4,1.55.18,1.95-.49.4-.67.17-1.54-.5-1.94-.44-.26-.96-.26-1.39-.04l-.76,1.28c.01.47.26.93.7,1.19Z"/>
    <path class="cls-2" d="M30.98,13.55c.53.28,1.18.08,1.45-.44.27-.52.07-1.17-.46-1.44-.53-.28-1.18-.08-1.45.44-.27.52-.07,1.17.46,1.44Z"/>
    <path class="cls-2" d="M25.16,11.73c.68.4,1.55.18,1.95-.49.4-.67.17-1.54-.5-1.94-.68-.4-1.55-.18-1.95.49s-.17,1.54.5,1.94Z"/>
    <path class="cls-4" d="M11.1,43.99h0s0,0,0,0c17.57-4.51,23.73-12.47,25.25-14.92,0,0,.01-.02.02-.03,0,0,0,0,0,0t0,0s0,0,0,0c0,0,0,0,0,0h0s0,0,0,0c.14-.22.28-.44.42-.66,2.16-3.67,2.58-7.75,1.3-11.39l-8.01,4.59c-.11.76-.39,1.54-.84,2.31l-.02.03h0c-1.69,2.83-4.67,3.61-7.41,2,0,0-.01,0-.02-.01l-10.71,18.11h0Z"/>
    <path class="cls-3" d="M19.95,18.42l.02-.03c.44-.74.96-1.34,1.54-1.79l.21-9.31c-3.8.65-7.17,3-9.34,6.67h0s0,0,0,0c-.07.1-6.68,9.22-1.28,30.03l10.71-18.11c-2.76-1.64-3.51-4.62-1.85-7.46Z"/>
    <path class="cls-5" d="M29.48,11.55c-.28.53-.32,1.11-.17,1.65l1.65-2.79c-.61.14-1.16.54-1.47,1.14Z"/>
    <path class="cls-5" d="M30.43,14.59c1.1.58,2.47.16,3.05-.94.58-1.1.15-2.46-.95-3.04-.5-.26-1.06-.32-1.57-.2l-1.65,2.79c.16.58.55,1.09,1.13,1.4ZM30.53,12.1c.27-.52.92-.72,1.45-.44.53.28.73.92.46,1.44-.27.52-.92.72-1.45.44-.53-.28-.73-.92-.46-1.44ZM30.15,14.12h0s0,0,0,0h-.01s0,0-.01,0c0,0,0,0,0,0Z"/>
    <path class="cls-5" d="M30.17,14.13s0,0,0,0h0s0,0,0,0c0,0,0,0,.01,0h.01Z"/>
    <path class="cls-5" d="M27.33,7.18h0s0,0,.01,0h.01s0,0,0,0h0Z"/>
    <path class="cls-5" d="M24.41,21.35c-.07-.04-.23-.16-.22-.4l.19-8.33c.06.04.12.08.18.12,1.24.73,2.84.33,3.57-.9.73-1.23.32-2.83-.92-3.56-.88-.52-1.94-.47-2.74.04l.04-1.86c2.38.16,4.95,1,7.31,2.4,0,0,.02.01.03.02l2.29-3.87s-.01,0-.02-.01c-2.76-1.64-5.71-2.7-8.53-3.07-.55-.07-1.1.09-1.52.45-.42.36-.67.88-.68,1.44l-.39,17.09c-.01.6.29,1.13.8,1.44.02.01.04.02.06.03l.6-1.02s-.05-.02-.06-.03ZM27.75,5.69h0s0,0,0,0h-.01s0,0-.01,0h0ZM24.66,9.79c.4-.67,1.27-.89,1.95-.49.68.4.9,1.27.5,1.94-.4.67-1.27.89-1.95.49-.68-.4-.9-1.27-.5-1.94Z"/>
    <path class="cls-6" d="M40.89,11.04c-1.66-2.29-4-4.37-6.75-6.02l-2.29,3.87c2.35,1.4,4.3,3.25,5.57,5.25l-6.78,3.89c.13-1-.33-2.03-1.26-2.58-.38-.22-.79-.34-1.2-.36l-.79,1.34c.42-.22.95-.22,1.39.04.68.4.9,1.27.5,1.94-.4.67-1.27.89-1.95.49-.44-.26-.69-.72-.7-1.19l-.79,1.34c.21.35.51.65.89.87.11.07.22.12.34.17l-2.21,1.27c-.16.09-.3.06-.39.02l-.6,1.02c.5.27,1.09.27,1.58-.02l14.83-8.51c.48-.28.82-.74.94-1.28.12-.54,0-1.11-.33-1.55Z"/>
    <path class="cls-5" d="M25.82,16.35c-.51.86-.46,1.89.03,2.69l.79-1.34c0-.26.06-.52.2-.75.14-.23.33-.41.56-.53l.79-1.34c-.93-.05-1.86.41-2.37,1.26Z"/>
    <path class="cls-5" d="M27.77,5.7s0,0,0,0h0s0,0,0,0c0,0,0,0,.01,0h.01Z"/>
  </g>
</svg>