<?xml version="1.0" encoding="UTF-8"?>
<svg id="Capa_1" data-name="Capa 1" xmlns="http://www.w3.org/2000/svg" viewBox="0 0 457.48 106.22">
  <defs>
    <style>
      .cls-1 {
        fill: #dd5c45;
      }

      .cls-2 {
        fill: #1d1d1b;
      }

      .cls-3 {
        fill: #b71e1d;
      }
    </style>
  </defs>
  <path class="cls-2" d="M30.24,44.46c0-2.39,3.29-3.79,7.98-3.79,7.68,0,17.66,3.19,27.04,8.58l4.99-19.96c-8.58-4.39-19.96-6.59-28.84-6.59-19.66,0-33.53,10.58-33.53,24.05,0,22.95,35.63,19.36,35.63,26.25,0,2.1-2.2,3.49-6.79,3.49-8.98,0-19.26-3.89-31.64-11.88L0,85.18c10.68,6.09,22.76,9.38,33.43,9.38,18.86,0,32.24-10.18,32.24-23.85,0-22.85-35.43-18.66-35.43-26.25Z"/>
  <path class="cls-2" d="M222.66,23.7h-62.18l-4.99,20.76h23.75l-37.62,46.11-.7,2.99h63.08l4.99-20.76h-25.25l38.22-46.11.7-2.99Z"/>
  <path class="cls-2" d="M294.81,23.7h-62.18l-4.99,20.76h23.75l-37.63,46.11-.7,2.99h63.07l4.99-20.76h-25.25l38.22-46.11.7-2.99Z"/>
  <path class="cls-2" d="M302.69,23.7l-17.46,69.86h22.46l17.46-69.86h-22.46Z"/>
  <path class="cls-2" d="M383.33,23.7h-27.15l-45.11,69.86h24.45l6.39-10.18h28.64l1.4,10.18h21.66l-10.28-69.86ZM353.39,65.22l12.07-19.06,2.6,19.06h-14.67Z"/>
  <path class="cls-2" d="M424.45,72.81l12.28-49.1h-22.46l-17.47,69.86h55.49l5.19-20.76h-33.03Z"/>
  <g>
    <path class="cls-3" d="M146.27,37.97l-20.23,11.6c-.27,1.92-.97,3.88-2.12,5.82l-.05.08h0c-4.26,7.14-11.8,9.12-18.72,5.04-7-4.13-8.91-11.69-4.72-18.87l.05-.08c1.1-1.86,2.42-3.38,3.89-4.53l.53-23.51c-9.6,1.65-18.11,7.56-23.58,16.85h0s0,0,0,0c-.18.25-16.87,23.27-3.24,75.83h0s0,0,0,0h0c44.41-11.4,59.94-31.53,63.78-37.68.01-.02.03-.04.04-.06,0,0,0-.02.01-.02t0,0s0,0,0,0c0,0,0,0,0,0h0s0,0,.01-.01c.36-.55.71-1.11,1.05-1.68,5.46-9.26,6.51-19.56,3.28-28.77Z"/>
    <g id="CUSTOM-Group">
      <path class="cls-1" d="M126.22,30.82h-.03s-.02-.02-.03-.02c0,0,.01,0,.02,0h.02s.02.02.02.02Z"/>
      <path class="cls-1" d="M126.89,31.99c2.79,1.46,6.24.4,7.69-2.37s.38-6.22-2.41-7.68c-2.79-1.46-6.24-.4-7.69,2.37s-.38,6.22,2.41,7.68ZM130.78,24.58c1.33.7,1.85,2.33,1.15,3.65s-2.33,1.82-3.66,1.12-1.85-2.33-1.16-3.65,2.33-1.82,3.66-1.12Z"/>
      <path class="cls-1" d="M119.09,13.28h-.02s-.02,0-.02,0c0,0,.01.01.03.02h.03s-.01-.01-.02-.02Z"/>
      <path class="cls-1" d="M120.15,9.52h-.02s-.02,0-.02,0c0,0,.01.01.03.02h.03s-.01-.01-.02-.02Z"/>
      <path class="cls-1" d="M154.13,26.93c.29-1.36,0-2.79-.83-3.92-4.21-5.81-10.12-11.07-17.1-15.22C129.22,3.64,121.78.96,114.66.04c-1.38-.18-2.78.24-3.84,1.15-1.06.91-1.69,2.23-1.72,3.63l-.98,43.17c-.03,1.5.72,2.86,2.02,3.63s2.85.78,4.16.04l37.46-21.48c1.21-.69,2.08-1.88,2.37-3.24ZM112.32,19.86c1-1.69,3.21-2.24,4.91-1.23s2.28,3.21,1.27,4.9-3.21,2.24-4.91,1.23-2.28-3.21-1.27-4.9h0ZM119.08,42.86c-1.71-1.01-2.28-3.21-1.27-4.9s3.21-2.24,4.91-1.23,2.28,3.21,1.27,4.9-3.21,2.24-4.91,1.23ZM127.42,40.69c.33-2.53-.83-5.14-3.17-6.53-3.12-1.86-7.16-.84-9.01,2.27s-.81,7.14,2.31,9c.28.17.57.31.86.43l-5.59,3.21c-.52.3-.97.09-1.14-.01s-.57-.4-.56-1l.48-21.02c.15.11.3.21.47.31,3.12,1.86,7.16.84,9.01-2.27s.81-7.14-2.31-9c-2.21-1.32-4.89-1.19-6.92.11l.11-4.69c6,.4,12.49,2.53,18.45,6.07s10.93,8.23,14.15,13.31l-17.13,9.82Z"/>
    </g>
  </g>
</svg>