<?xml version="1.0" encoding="UTF-8"?>
<svg id="Capa_1" data-name="Capa 1" xmlns="http://www.w3.org/2000/svg" viewBox="0 0 46.75 47.33">
  <defs>
    <style>
      .cls-1 {
        fill: #fff;
      }

      .cls-2 {
        fill: none;
      }

      .cls-3 {
        fill: #b71e1d;
      }

      .cls-4 {
        fill: #ab2221;
      }

      .cls-5 {
        fill: #ec7021;
      }

      .cls-6 {
        fill: #e06327;
      }
    </style>
  </defs>
  <rect class="cls-1" x="0" y="0" width="46.75" height="47.33" rx="4.69" ry="4.69"/>
  <g>
    <path class="cls-2" d="M24.62,9.42l-.03,1.52c.66-.42,1.53-.46,2.25-.03,1.02.6,1.35,1.92.75,2.93-.6,1.01-1.91,1.34-2.93.74-.05-.03-.1-.06-.15-.1l-.15,6.84c0,.19.13.29.18.32.01,0,.03.02.05.02l1.13-1.92c-.41-.66-.44-1.51-.02-2.21.42-.7,1.18-1.07,1.94-1.04l.92-1.55c-.12-.44-.09-.92.14-1.35.26-.49.71-.82,1.21-.93l.74-1.25s-.02,0-.02-.01c-1.94-1.15-4.05-1.84-6-1.97ZM26.94,10.01s0,0-.01,0h0s0,0,0,0c0,0,0,0,0,0h-.01Z"/>
    <path class="cls-2" d="M26.53,18.03c-.11.19-.17.41-.16.62l.62-1.05c-.18.1-.35.24-.46.43Z"/>
    <path class="cls-2" d="M31.2,12.82c.91.48,1.26,1.6.78,2.5-.47.9-1.6,1.25-2.5.77-.47-.25-.79-.67-.93-1.15l-.92,1.55c.34.02.67.11.99.3.76.45,1.14,1.3,1.03,2.12l5.57-3.19c-1.04-1.65-2.65-3.16-4.58-4.31l-.74,1.25c.42-.1.88-.05,1.29.16Z"/>
    <path class="cls-2" d="M24.91,21.64l1.82-1.04c-.09-.04-.19-.09-.28-.14-.31-.18-.55-.43-.73-.71l-1.13,1.92c.07.03.19.05.32-.02Z"/>
    <path class="cls-2" d="M26.94,19.62c.55.33,1.27.15,1.6-.4.33-.55.14-1.26-.41-1.59-.36-.21-.79-.21-1.14-.03l-.62,1.05c0,.39.21.76.57.98Z"/>
    <path class="cls-2" d="M29.93,15.23c.43.23.97.06,1.19-.36.22-.43.06-.96-.38-1.19-.43-.23-.97-.06-1.19.36-.22.43-.06.96.38,1.19Z"/>
    <path class="cls-2" d="M25.16,13.74c.55.33,1.27.15,1.6-.4.33-.55.14-1.26-.41-1.59-.55-.33-1.27-.15-1.6.4s-.14,1.26.41,1.59Z"/>
    <path class="cls-4" d="M13.61,40.23h0s0,0,0,0c14.43-3.71,19.48-10.24,20.74-12.25,0,0,.01-.01.02-.02,0,0,0,0,0,0t0,0s0,0,0,0c0,0,0,0,0,0h0s0,0,0,0c.12-.18.23-.36.34-.55,1.78-3.01,2.12-6.36,1.07-9.36l-6.58,3.77c-.09.62-.32,1.26-.69,1.89l-.02.03h0c-1.39,2.32-3.84,2.97-6.09,1.64,0,0,0,0-.01,0l-8.79,14.87h0Z"/>
    <path class="cls-3" d="M20.88,19.23l.02-.03c.36-.61.79-1.1,1.27-1.47l.17-7.65c-3.12.54-5.89,2.46-7.67,5.48h0s0,0,0,0c-.06.08-5.49,7.57-1.05,24.66l8.79-14.87c-2.26-1.34-2.88-3.8-1.52-6.13Z"/>
    <path class="cls-5" d="M28.7,13.59c-.23.43-.26.91-.14,1.35l1.35-2.29c-.5.12-.95.44-1.21.93Z"/>
    <path class="cls-5" d="M29.48,16.09c.91.48,2.03.13,2.5-.77.47-.9.12-2.02-.78-2.5-.41-.22-.87-.26-1.29-.16l-1.35,2.29c.13.48.45.9.93,1.15ZM29.56,14.04c.22-.43.76-.59,1.19-.36.43.23.6.76.38,1.19-.22.43-.76.59-1.19.36-.43-.23-.6-.76-.38-1.19ZM29.25,15.7h0s0,0,0,0h-.01s0,0-.01,0c0,0,0,0,0,0Z"/>
    <path class="cls-5" d="M29.27,15.71s0,0,0,0h0s0,0,0,0c0,0,0,0,.01,0h.01Z"/>
    <path class="cls-5" d="M26.94,10h0s0,0,.01,0h.01s0,0,0,0h0Z"/>
    <path class="cls-5" d="M24.54,21.63c-.06-.03-.19-.13-.18-.32l.15-6.84s.1.07.15.1c1.02.6,2.33.27,2.93-.74.6-1.01.26-2.32-.75-2.93-.72-.43-1.59-.39-2.25.03l.03-1.52c1.95.13,4.06.82,6,1.97,0,0,.02,0,.02.01l1.88-3.18s-.01,0-.02,0c-2.27-1.35-4.69-2.22-7-2.52-.45-.06-.9.08-1.25.37-.34.3-.55.73-.56,1.18l-.32,14.04c-.01.49.23.93.66,1.18.02,0,.03.02.05.03l.5-.84s-.04-.02-.05-.02ZM27.28,8.78h0s0,0,0,0h-.01s0,0-.01,0h0ZM24.74,12.14c.33-.55,1.04-.73,1.6-.4.55.33.74,1.04.41,1.59-.33.55-1.04.73-1.6.4-.55-.33-.74-1.04-.41-1.59Z"/>
    <path class="cls-6" d="M38.07,13.17c-1.36-1.88-3.28-3.59-5.54-4.94l-1.88,3.18c1.93,1.15,3.53,2.67,4.58,4.31l-5.57,3.19c.11-.82-.27-1.67-1.03-2.12-.31-.18-.65-.28-.99-.3l-.65,1.1c.35-.18.78-.18,1.14.03.55.33.74,1.04.41,1.59-.33.55-1.04.73-1.6.4-.36-.21-.56-.59-.57-.98l-.65,1.1c.18.28.42.53.73.71.09.05.18.1.28.14l-1.82,1.04c-.13.08-.25.05-.32.02l-.5.84c.41.22.89.22,1.3-.02l12.18-6.99c.39-.23.67-.61.77-1.05.1-.44,0-.91-.27-1.27Z"/>
    <path class="cls-5" d="M25.69,17.53c-.42.7-.38,1.56.02,2.21l.65-1.1c0-.21.05-.42.16-.62.11-.19.27-.34.46-.43l.65-1.1c-.77-.04-1.53.33-1.94,1.04Z"/>
    <path class="cls-5" d="M27.3,8.79s0,0,0,0h0s0,0,0,0c0,0,0,0,.01,0h.01Z"/>
  </g>
</svg>