<?xml version="1.0" encoding="UTF-8"?>
<svg id="Capa_1" data-name="Capa 1" xmlns="http://www.w3.org/2000/svg" viewBox="0 0 251.77 254.89">
  <defs>
    <style>
      .cls-1 {
        fill: #fff;
      }

      .cls-2 {
        fill: none;
      }

      .cls-3 {
        fill: #b71e1d;
      }

      .cls-4 {
        fill: #ab2221;
      }

      .cls-5 {
        fill: #ec7021;
      }

      .cls-6 {
        fill: #e06327;
      }
    </style>
  </defs>
  <rect class="cls-1" width="251.77" height="254.89" rx="52.34" ry="52.34"/>
  <g>
    <path class="cls-2" d="M132.01,34.86l-.23,10c4.32-2.76,10.03-3.03,14.75-.23,6.66,3.96,8.87,12.56,4.93,19.19-3.94,6.62-12.55,8.79-19.21,4.83-.34-.2-.67-.42-.99-.65l-1.01,44.83c-.03,1.27.82,1.91,1.19,2.13.08.05.19.11.33.16l7.43-12.57c-2.66-4.3-2.91-9.88-.16-14.5,2.73-4.6,7.73-7.05,12.75-6.79l6.02-10.19c-.8-2.87-.56-6.04.93-8.87,1.69-3.22,4.64-5.35,7.94-6.13l4.83-8.18c-.05-.03-.1-.06-.15-.09-12.7-7.55-26.55-12.09-39.35-12.94ZM147.23,38.72s-.05-.04-.07-.05h.04s.05,0,.05,0c.02.02.04.03.05.04h-.07Z"/>
    <path class="cls-2" d="M144.51,91.3c-.75,1.26-1.09,2.66-1.05,4.04l4.07-6.88c-1.21.63-2.27,1.59-3.01,2.84Z"/>
    <path class="cls-2" d="M175.15,57.14c5.94,3.12,8.24,10.47,5.14,16.38-3.11,5.91-10.47,8.18-16.41,5.06-3.09-1.63-5.2-4.4-6.07-7.51l-6.02,10.19c2.21.11,4.43.75,6.46,1.96,4.98,2.96,7.47,8.53,6.76,13.92l36.52-20.94c-6.83-10.79-17.38-20.75-30.01-28.29l-4.83,8.18c2.76-.65,5.76-.35,8.47,1.07Z"/>
    <path class="cls-2" d="M133.87,114.98l11.92-6.84c-.62-.26-1.23-.56-1.83-.91-2.01-1.2-3.62-2.82-4.77-4.69l-7.43,12.57c.48.2,1.25.36,2.11-.13Z"/>
    <path class="cls-2" d="M147.22,101.75c3.64,2.16,8.34.99,10.48-2.61,2.14-3.6.93-8.29-2.71-10.45-2.37-1.41-5.19-1.4-7.47-.23l-4.07,6.88c.06,2.54,1.4,5.01,3.76,6.42Z"/>
    <path class="cls-2" d="M166.84,72.94c2.83,1.49,6.33.42,7.8-2.38,1.47-2.8.37-6.29-2.46-7.78-2.83-1.49-6.33-.42-7.81,2.38-1.47,2.8-.37,6.29,2.46,7.78Z"/>
    <path class="cls-2" d="M135.51,63.17c3.64,2.16,8.34.99,10.48-2.61,2.14-3.6.93-8.29-2.71-10.45-3.64-2.16-8.34-.99-10.48,2.61s-.93,8.29,2.71,10.45Z"/>
    <path class="cls-4" d="M59.77,236.87h.02s0,0,0,0c94.63-24.3,127.77-67.17,135.98-80.33.03-.05.07-.1.1-.15,0-.02.01-.04.03-.05t0-.01s0-.01,0-.02c0,0,0-.01,0-.02h0s.01-.01.02-.03c.77-1.17,1.52-2.36,2.24-3.58,11.65-19.75,13.88-41.71,7-61.36l-43.14,24.73c-.59,4.09-2.08,8.28-4.51,12.41l-.1.18h0c-9.09,15.23-25.17,19.45-39.91,10.75-.03-.02-.07-.04-.1-.06l-57.66,97.5v.02Z"/>
    <path class="cls-3" d="M107.46,99.17l.1-.18c2.34-3.97,5.16-7.2,8.3-9.66l1.14-50.14c-20.47,3.51-38.62,16.13-50.29,35.93h-.01s0,.01,0,.01c-.39.53-35.97,49.63-6.92,161.71l57.66-97.5c-14.85-8.82-18.89-24.89-9.97-40.18Z"/>
    <path class="cls-5" d="M158.74,62.2c-1.49,2.83-1.73,6-.93,8.87l8.87-15c-3.3.78-6.25,2.91-7.94,6.13Z"/>
    <path class="cls-5" d="M163.88,78.58c5.94,3.12,13.3.85,16.41-5.06,3.11-5.91.8-13.26-5.14-16.38-2.71-1.42-5.71-1.72-8.47-1.07l-8.87,15c.87,3.12,2.98,5.89,6.07,7.51ZM164.38,65.16c1.47-2.8,4.97-3.87,7.81-2.38,2.83,1.49,3.94,4.98,2.46,7.78-1.47,2.8-4.97,3.87-7.8,2.38-2.83-1.49-3.94-4.98-2.46-7.78ZM162.36,76.03l.05.02s.04.02.04.03h-.07s-.05-.03-.07-.04c.02,0,.02,0,.04,0Z"/>
    <path class="cls-5" d="M162.46,76.08s-.02-.02-.04-.03l-.05-.02s-.02,0-.04,0c.02,0,.04.03.07.05h.07Z"/>
    <path class="cls-5" d="M147.2,38.67h-.04s.03.03.07.05h.07s-.03-.02-.05-.04h-.05Z"/>
    <path class="cls-5" d="M131.44,114.95c-.37-.22-1.22-.86-1.19-2.13l1.01-44.83c.32.23.65.45.99.65,6.66,3.96,15.27,1.79,19.21-4.83,3.94-6.62,1.72-15.23-4.93-19.19-4.72-2.81-10.42-2.53-14.75.23l.23-10c12.8.85,26.64,5.39,39.35,12.94.05.03.1.06.15.09l12.33-20.86s-.07-.04-.11-.06c-14.89-8.85-30.77-14.57-45.93-16.53-2.95-.38-5.93.51-8.18,2.45-2.26,1.94-3.59,4.76-3.66,7.74l-2.08,92.05c-.07,3.21,1.54,6.1,4.3,7.75.11.06.22.12.33.18l3.25-5.5c-.13-.06-.24-.11-.33-.16ZM149.45,30.65h.05s.04.04.05.05h-.07s-.05-.04-.07-.05h.04ZM132.8,52.71c2.14-3.6,6.84-4.77,10.48-2.61,3.64,2.16,4.85,6.85,2.71,10.45-2.14,3.6-6.84,4.77-10.48,2.61-3.64-2.16-4.85-6.85-2.71-10.45Z"/>
    <path class="cls-6" d="M220.2,59.43c-8.95-12.35-21.52-23.55-36.36-32.39l-12.33,20.86c12.63,7.54,23.18,17.5,30.01,28.29l-36.52,20.94c.71-5.39-1.78-10.96-6.76-13.92-2.03-1.21-4.25-1.84-6.46-1.96l-4.26,7.21c2.27-1.17,5.09-1.18,7.47.23,3.64,2.16,4.85,6.85,2.71,10.45-2.14,3.6-6.84,4.77-10.48,2.61-2.36-1.4-3.7-3.87-3.76-6.42l-4.26,7.21c1.15,1.86,2.76,3.49,4.77,4.69.6.35,1.21.66,1.83.91l-11.92,6.84c-.86.49-1.64.33-2.11.13l-3.25,5.5c2.7,1.46,5.86,1.43,8.53-.1l79.87-45.8c2.58-1.48,4.42-4,5.05-6.91.62-2.91-.02-5.95-1.76-8.36Z"/>
    <path class="cls-5" d="M139.03,88.04c-2.75,4.62-2.5,10.2.16,14.5l4.26-7.21c-.03-1.38.3-2.77,1.05-4.04.75-1.25,1.8-2.21,3.01-2.84l4.26-7.21c-5.02-.26-10.02,2.19-12.75,6.79Z"/>
    <path class="cls-5" d="M149.55,30.7s-.03-.02-.05-.04h-.05s-.04,0-.04,0c.01,0,.03.03.07.05h.07Z"/>
  </g>
</svg>